<svg xmlns="http://www.w3.org/2000/svg"  width="345" height="285" >
<g>
<line x1="40" y1="40"  x2="40" y2="240" style=" stroke: black;"/>
<line x1="40" y1="240"  x2="340" y2="240" style=" stroke: black;"/>
<line x1="37" y1="220"  x2="40" y2="220" style=" stroke: black;"/>
<text x="8" y="220" style="font-family: monospace; font-size: 8px;">0.04</text>
<line x1="37" y1="200"  x2="40" y2="200" style=" stroke: black;"/>
<text x="8" y="200" style="font-family: monospace; font-size: 8px;">0.08</text>
<line x1="37" y1="180"  x2="40" y2="180" style=" stroke: black;"/>
<text x="8" y="180" style="font-family: monospace; font-size: 8px;">0.12</text>
<line x1="37" y1="160"  x2="40" y2="160" style=" stroke: black;"/>
<text x="8" y="160" style="font-family: monospace; font-size: 8px;">0.16</text>
<line x1="37" y1="140"  x2="40" y2="140" style=" stroke: black;"/>
<text x="8" y="140" style="font-family: monospace; font-size: 8px;">0.20</text>
<line x1="37" y1="120"  x2="40" y2="120" style=" stroke: black;"/>
<text x="8" y="120" style="font-family: monospace; font-size: 8px;">0.24</text>
<line x1="37" y1="100"  x2="40" y2="100" style=" stroke: black;"/>
<text x="8" y="100" style="font-family: monospace; font-size: 8px;">0.28</text>
<line x1="37" y1="80"  x2="40" y2="80" style=" stroke: black;"/>
<text x="8" y="80" style="font-family: monospace; font-size: 8px;">0.32</text>
<line x1="37" y1="60"  x2="40" y2="60" style=" stroke: black;"/>
<text x="8" y="60" style="font-family: monospace; font-size: 8px;">0.36</text>
<line x1="37" y1="40"  x2="40" y2="40" style=" stroke: black;"/>
<text x="8" y="40" style="font-family: monospace; font-size: 8px;">0.40</text>
<line x1="70" y1="240"  x2="70" y2="245" style=" stroke: black;"/>
<text x="70" y="245" transform="rotate(90,70,245)" style="font-family: monospace; font-size: 8px;">221</text>
<line x1="100" y1="240"  x2="100" y2="245" style=" stroke: black;"/>
<text x="100" y="245" transform="rotate(90,100,245)" style="font-family: monospace; font-size: 8px;">442</text>
<line x1="130" y1="240"  x2="130" y2="245" style=" stroke: black;"/>
<text x="130" y="245" transform="rotate(90,130,245)" style="font-family: monospace; font-size: 8px;">663</text>
<line x1="160" y1="240"  x2="160" y2="245" style=" stroke: black;"/>
<text x="160" y="245" transform="rotate(90,160,245)" style="font-family: monospace; font-size: 8px;">884</text>
<line x1="190" y1="240"  x2="190" y2="245" style=" stroke: black;"/>
<text x="190" y="245" transform="rotate(90,190,245)" style="font-family: monospace; font-size: 8px;">1105</text>
<line x1="220" y1="240"  x2="220" y2="245" style=" stroke: black;"/>
<text x="220" y="245" transform="rotate(90,220,245)" style="font-family: monospace; font-size: 8px;">1326</text>
<line x1="250" y1="240"  x2="250" y2="245" style=" stroke: black;"/>
<text x="250" y="245" transform="rotate(90,250,245)" style="font-family: monospace; font-size: 8px;">1547</text>
<line x1="280" y1="240"  x2="280" y2="245" style=" stroke: black;"/>
<text x="280" y="245" transform="rotate(90,280,245)" style="font-family: monospace; font-size: 8px;">1768</text>
<line x1="310" y1="240"  x2="310" y2="245" style=" stroke: black;"/>
<text x="310" y="245" transform="rotate(90,310,245)" style="font-family: monospace; font-size: 8px;">1989</text>
<line x1="340" y1="240"  x2="340" y2="245" style=" stroke: black;"/>
<text x="340" y="245" transform="rotate(90,340,245)" style="font-family: monospace; font-size: 8px;">2210</text>
<text x="5" y="8" style="font-family: monospace; font-size: 10px;">Dist. Dt</text>
<text x="320" y="230" style="font-family: monospace; font-size: 10px;">Rank</text>
<polyline style="stroke: #00a5eb; stroke-width:1;fill: none;"  points="40 240,41 240,42 240,43 240,44 240,44 239,45 239,46 239,47 239,48 239,49 238,50 238,51 238,51 237,52 237,53 237,54 237,54 236,55 236,56 236,56 235,57 235,58 235,59 234,60 234,61 234,61 233,62 233,62 232,63 232,64 232,64 231,65 231,66 231,66 230,67 230,68 230,68 229,69 229,70 229,71 229,72 229,72 228,73 228,74 228,75 228,76 228,76 227,77 227,78 227,79 227,80 227,81 227,81 226,82 226,83 226,84 226,85 226,86 226,87 226,87 225,88 225,89 225,90 225,91 225,92 225,92 224,93 224,94 224,95 224,96 224,97 224,98 224,99 224,99 223,100 223,101 223,102 223,103 223,104 223,105 223,106 223,107 223,108 223,109 223,109 222,110 222,111 222,112 222,113 222,114 222,115 222,116 222,117 222,118 222,118 221,119 221,120 221,121 221,122 221,123 221,124 221,124 220,125 220,126 220,127 220,128 220,129 220,130 220,131 220,131 219,132 219,133 219,134 219,135 219,136 219,137 219,137 218,138 218,139 218,140 218,141 218,142 218,143 218,144 218,145 218,146 218,146 217,147 217,148 217,149 217,150 217,151 217,152 217,153 217,154 217,155 217,155 216,156 216,157 216,158 216,159 216,160 216,161 216,162 215,163 215,164 215,165 215,166 215,167 215,168 215,169 215,170 215,171 214,172 214,173 214,174 214,175 214,176 214,177 214,178 214,178 213,179 213,180 213,181 213,182 213,183 213,183 212,184 212,185 212,186 212,186 211,187 211,188 211,189 211,190 211,191 211,191 210,192 210,193 210,194 210,195 210,196 210,196 209,197 209,198 209,199 209,200 209,201 209,202 209,202 208,203 208,204 208,205 208,206 208,207 208,207 207,208 207,209 207,210 207,211 207,212 207,212 206,213 206,214 206,215 206,216 206,217 206,218 206,218 205,219 205,220 205,221 205,222 205,223 205,224 205,225 205,226 205,226 204,227 204,228 204,229 204,230 204,231 204,232 204,233 204,234 204,234 203,235 203,236 203,237 203,238 203,239 203,240 203,241 203,241 202,242 202,243 202,244 202,245 202,246 202,247 202,248 202,248 201,249 201,250 201,251 201,252 201,253 201,254 201,254 200,255 200,256 200,257 200,258 200,258 199,259 199,260 199,261 199,262 199,263 199,264 199,264 198,265 198,266 198,266 197,267 197,268 197,268 196,269 196,270 196,271 195,272 195,272 194,272 193,273 193,273 192,274 192,275 192,275 191,276 191,277 191,277 190,278 190,278 189,278 188,279 187,280 187,280 186,281 185,281 184,282 184,282 183,283 182,284 182,284 181,285 181,286 181,286 180,287 180,288 180,288 179,289 179,290 179,291 179,291 178,292 178,293 178,293 177,294 177,295 177,296 177,296 176,297 176,297 175,298 175,299 175,299 174,300 174,301 174,302 174,302 173,303 173,304 173,305 173,305 172,306 172,307 172,308 172,308 171,309 171,310 171,311 171,311 170,312 170,313 170,314 170,315 170,315 169,316 169,317 169,318 169,318 168,319 168,320 168,320 167,321 167,322 167,323 167,323 166,324 166,325 166,326 166,326 165,327 165,327 164,328 164,328 163,328 162,329 162,329 161,329 159,329 158,329 157,330 157,330 154,330 152,330 151,330 149,330 147,331 73,331 71,331 69,331 68,331 67,331 66,332 65,333 65,333 64,333 63,333 62,334 62,334 61,334 60,335 59,335 58,336 58,336 57,337 57,337 56,338 56,338 55,338 54,338 53,339 53,339 52,339 51,339 50,339 48,339 42,339 39"/><line id="CutDis10" visibility="hidden" x1="40" y1="236"  x2="340" y2="236" style=" stroke: red;"/>
<line id="CutDis9" visibility="hidden" x1="40" y1="199"  x2="340" y2="199" style=" stroke: red;"/>
<line id="CutDis8" visibility="hidden" x1="40" y1="237"  x2="340" y2="237" style=" stroke: red;"/>
<line id="CutDis7" visibility="hidden" x1="40" y1="235"  x2="340" y2="235" style=" stroke: red;"/>
<line id="CutDis6" visibility="hidden" x1="40" y1="236"  x2="340" y2="236" style=" stroke: red;"/>
<line id="CutDis5" visibility="hidden" x1="40" y1="234"  x2="340" y2="234" style=" stroke: red;"/>
<line id="CutDis4" visibility="hidden" x1="40" y1="234"  x2="340" y2="234" style=" stroke: red;"/>
<line id="CutDis3" visibility="hidden" x1="40" y1="238"  x2="340" y2="238" style=" stroke: red;"/>
<line id="CutDis2" visibility="hidden" x1="40" y1="233"  x2="340" y2="233" style=" stroke: red;"/>
<line id="CutDis1" visibility="hidden" x1="40" y1="129"  x2="340" y2="129" style=" stroke: red;"/>

</g>
</svg>
